# xmcd CD database file
#
# Track frame offsets:
#	150
#	19142
#	39471
#	59860
#	77632
#	99907
#	121956
#	143301
#	164418
#	192119
#	221341
#
# Disc length: 3349 seconds
#
# Revision: 14
# Processed by: cddbd v1.5.1PL2 Copyright (c) Steve Scherf et al.
# Submitted via: CDex 1.51
#
DISCID=8c0d130b
DTITLE=小柳ゆき - Koyanagi the Covers PRODUCT 1
DYEAR=2000
DGENRE=J ポップ
TTITLE0=空が落ちてくる (I Feel The Earth Move)
TTITLE1=Without You
TTITLE2=WHO'S CRYING NOW
TTITLE3=MacAthur Park
TTITLE4=CRY ME A RIVER
TTITLE5=JUST ONE LOOK
TTITLE6=明日に架ける橋 (Bridge Over Troubled Water)
TTITLE7=MANDY
TTITLE8=Shinin' day - ICE Version -
TTITLE9=I don't wanna be crazy - H.N. Version -
TTITLE10=あなたのキスを数えましょう - Orchestral Version -
EXTD=YEAR: 2000
EXTT0=
EXTT1=
EXTT2=
EXTT3=
EXTT4=
EXTT5=
EXTT6=
EXTT7=
EXTT8=bonus track
EXTT9=bonus track
EXTT10=precious track
PLAYORDER=
